<svg width="104" height="32" viewBox="0 0 104 32" fill="none" xmlns="http://www.w3.org/2000/svg">
<path d="M102.104 28.3738C100.671 28.5951 98.9387 28.9974 93.6231 28.9974C87.8098 28.9974 83.3105 27.4083 83.3105 19.7445V10.2502C83.3105 2.58646 87.8298 0.997375 93.6231 0.997375C98.9387 0.997375 100.671 1.39967 102.104 1.62093C102.781 1.70139 103 1.94278 103 2.56634V5.48301C103 5.98588 102.602 6.38818 102.104 6.38818H92.986C90.3979 6.38818 89.4622 7.29335 89.4622 10.2704V12.0807H101.567C102.064 12.0807 102.462 12.483 102.462 12.9859V16.2445C102.462 16.7474 102.064 17.1497 101.567 17.1497H89.4622V19.7847C89.4622 22.7617 90.3979 23.6669 92.986 23.6669H102.104C102.602 23.6669 103 24.0692 103 24.5721V27.4686C103 28.052 102.781 28.2934 102.104 28.3738Z" fill="#111111"/>
<path d="M49.6058 2.54621L45.1862 27.5692C45.0866 28.0319 44.7283 28.4342 44.2903 28.4342H43.8324C43.4342 28.4342 43.1953 28.1123 43.1953 27.7502C43.1953 27.6497 43.1953 27.6094 43.1953 27.5692L47.615 2.54621C47.7145 2.08357 48.0729 1.68127 48.5109 1.68127H48.9688C49.3669 1.68127 49.6058 2.00311 49.6058 2.36518C49.6058 2.46576 49.6058 2.50598 49.6058 2.54621Z" fill="#111111"/>
<path d="M38.3175 2.44564L34.6743 24.7732C34.2761 27.6094 32.9821 28.4342 30.6528 28.4342H28.2439C26.2331 28.4342 25.1581 27.4485 24.5409 24.8336L21.0171 13.6094C20.9375 13.2071 20.9375 13.1066 20.7583 13.1066C20.5791 13.1066 20.5393 13.187 20.4398 13.6094L16.8961 24.8336C16.2789 27.4485 15.2039 28.4342 13.1931 28.4342H10.7643C8.435 28.4342 7.14095 27.6296 6.74278 24.7732L3 2.44564C3 2.40541 3 2.36518 3 2.30484C3 1.90254 3.35835 1.68127 3.75652 1.68127H8.49473C8.85308 1.68127 9.21143 2.00311 9.25124 2.48587L12.0185 22.279C12.0583 22.6813 12.0583 22.9629 12.2375 22.9629C12.4167 22.9629 12.4167 22.7014 12.4963 22.279L16.3386 10.1094C16.5975 9.02323 17.2345 8.07783 19.1457 8.07783H22.2315C24.1427 8.07783 24.7798 9.02323 25.0386 10.1094L28.8809 22.279C28.9606 22.6813 28.9606 22.9629 29.1398 22.9629C29.3189 22.9629 29.3189 22.7014 29.3588 22.279L32.0265 2.48587C32.0663 1.983 32.4247 1.68127 32.783 1.68127H37.5212C37.9194 1.68127 38.2777 1.90254 38.2777 2.30484C38.3175 2.36518 38.3175 2.40541 38.3175 2.44564Z" fill="#111111"/>
<path d="M76.5219 1.68127H75.9844C75.5265 1.68127 75.208 2.08357 75.1283 2.54621L71.0272 26.1411C70.9874 26.3221 70.7485 26.5031 70.7087 26.5031H70.6888C70.6689 26.5031 70.6689 26.5031 70.649 26.5031C70.5096 26.483 70.4698 26.3623 70.43 26.2014L63.0439 3.10944C62.7652 2.32495 62.1879 1.70139 61.0133 1.70139C60.9536 1.70139 60.8938 1.70139 60.8341 1.70139C60.8142 1.70139 60.7744 1.70139 60.7545 1.70139C59.8586 1.80197 58.8234 2.3853 58.5446 3.91403L54.3838 27.5692C54.3838 27.6094 54.3838 27.6698 54.3838 27.7502C54.3838 28.1123 54.6028 28.4342 55.0209 28.4342H55.4788C55.9366 28.4342 56.295 28.0319 56.3746 27.5692L60.5355 3.91403C60.5753 3.71289 60.6748 3.63243 60.7545 3.61231C60.7744 3.61231 60.7744 3.59219 60.7943 3.59219C60.8142 3.59219 60.8142 3.59219 60.8341 3.59219C60.9934 3.61231 61.1526 3.733 61.1925 3.91403L68.5785 26.9658C68.9368 28.1123 69.5341 28.4342 70.649 28.4342H70.6689C71.7837 28.414 72.7792 27.6094 73.038 26.1612L77.1391 2.56633C77.1391 2.5261 77.1391 2.42553 77.1391 2.3853C77.159 2.00311 76.9798 1.68127 76.5219 1.68127Z" fill="#111111"/>
</svg>
